<?xml version="1.0" encoding="iso-8859-1"?>
<!-- Generator: Adobe Illustrator 23.1.0, SVG Export Plug-In . SVG Version: 6.00 Build 0)  -->
<svg version="1.1" id="Glyph" xmlns="http://www.w3.org/2000/svg" xmlns:xlink="http://www.w3.org/1999/xlink" x="0px" y="0px"
	 viewBox="0 0 121.999 121.999" style="enable-background:new 0 0 121.999 121.999;" xml:space="preserve">
<g>
	<path d="M51.086,62.287l-0.754-0.754c-0.006-0.006-0.008-0.014-0.014-0.021l-4.381,4.381l0.771,0.771L51.086,62.287z"/>
	<path d="M17.993,94.748c-3.426,1.731-7.049,3.08-10.826,3.959c-1.859,0.431-3.691,0.781-5.508,1.055
		c-0.576,0.087-1.061,0.412-1.366,0.914c-0.31,0.509-0.377,1.126-0.185,1.691c1.075,3.16,3.245,7.816,7.477,12.048
		s8.888,6.402,12.048,7.477c0.565,0.193,1.181,0.124,1.691-0.185c0.502-0.306,0.827-0.791,0.914-1.366
		c0.274-1.817,0.625-3.649,1.041-5.445c0.886-3.808,2.24-7.449,3.976-10.888c-1.991-0.974-3.807-2.24-5.386-3.813
		C20.268,98.603,18.981,96.767,17.993,94.748z"/>
	<path d="M33.665,88.368l5.1-5.1l-2.917-2.917l-5.438,5.438c-0.671,0.671-1.369,1.307-2.075,1.935l2.986,2.986L33.665,88.368z"/>
	<polygon points="40.919,81.114 40.92,81.113 40.922,81.112 43.815,78.218 43.816,78.217 43.816,78.217 45.943,76.09 43.027,73.174 
		37.263,78.938 40.18,81.854 	"/>
	<path d="M22.016,92.48c-0.739,0.467-1.484,0.927-2.247,1.353c0.893,1.833,2.058,3.501,3.51,4.945
		c1.432,1.426,3.081,2.573,4.889,3.453c0.426-0.764,0.885-1.508,1.352-2.248c-1.577-0.854-3.024-1.916-4.299-3.189
		C23.94,95.516,22.874,94.063,22.016,92.48z"/>
	<path d="M32.03,92.832c-0.195,0.195-0.451,0.293-0.707,0.293s-0.512-0.098-0.707-0.293l-3.814-3.814
		c-1.008,0.825-2.046,1.607-3.114,2.345c0.78,1.478,1.76,2.831,2.947,4.017c1.182,1.181,2.532,2.156,4.003,2.932
		c1.345-1.946,2.834-3.793,4.461-5.532c0.018-0.022,0.025-0.048,0.046-0.069c0.014-0.014,0.034-0.019,0.049-0.032
		c0.221-0.235,0.435-0.477,0.661-0.709l-1.481-1.481L32.03,92.832z"/>
	<polygon points="40.887,83.975 35.786,89.075 37.255,90.543 43.096,84.703 41.627,83.234 	"/>
	<rect x="43.469" y="80.775" transform="matrix(0.7072 -0.707 0.707 0.7072 -44.8095 55.4311)" width="2.095" height="2.077"/>
	<path d="M37.962,92.665l-0.338,0.338c-0.13,0.13-0.246,0.27-0.374,0.401l1.481,1.481l2.206-2.206l-1.495-1.495L37.962,92.665z"/>
	<path d="M69.185,44.188l-0.754-0.754c-0.006-0.006-0.008-0.014-0.013-0.02l-4.381,4.381l0.771,0.771L69.185,44.188z"/>
	<path d="M81.407,31.965c0.021-0.026,0.03-0.057,0.054-0.081s0.055-0.033,0.081-0.054l3.569-3.569L84.34,27.49l-8.721,8.721
		l0.771,0.771L81.407,31.965z"/>
	<path d="M52.5,60.873l4.378-4.378l-0.771-0.771l-4.381,4.381c0.006,0.006,0.014,0.008,0.021,0.014L52.5,60.873z"/>
	<rect x="88.005" y="23.003" transform="matrix(0.7071 -0.7071 0.7071 0.7071 9.4315 69.8671)" width="2.095" height="1.091"/>
	<path d="M109.679,3.667l1.481-1.481l-0.774-0.774c-0.189-0.189-0.44-0.293-0.707-0.293s-0.518,0.104-0.707,0.293
		c-0.257,0.256-0.361,0.507-0.361,0.774s0.104,0.518,0.293,0.707L109.679,3.667z"/>
	<path d="M103.887,9.458l1.481-1.481l-0.774-0.774c-0.189-0.189-0.44-0.293-0.707-0.293s-0.519,0.104-0.708,0.293
		c-0.256,0.256-0.36,0.507-0.36,0.774c0,0.267,0.104,0.518,0.293,0.707L103.887,9.458z"/>
	<rect x="57.449" y="53.047" transform="matrix(0.7071 -0.7071 0.7071 0.7071 -20.6126 57.4192)" width="3.119" height="1.091"/>
	<path d="M70.599,42.774l4.378-4.377l-0.771-0.771l-4.381,4.381c0.006,0.006,0.014,0.008,0.02,0.013L70.599,42.774z"/>
	<rect x="65.918" y="50.934" transform="matrix(0.7071 -0.7071 0.7071 0.7071 -19.3011 63.4708)" width="2.096" height="8.2"/>
	<rect x="46.377" y="77.91" transform="matrix(0.707 -0.7072 0.7072 0.707 -41.9492 56.6345)" width="2.008" height="2.077"/>
	<path d="M61.911,54.289l-2.206,2.206l0.882,0.882c1.131-0.518,2.561-0.335,3.466,0.57c0.575,0.575,0.893,1.34,0.893,2.155
		c0,0.814-0.317,1.579-0.893,2.155c0,0,0,0,0,0s0,0,0,0c-0.576,0.575-1.341,0.893-2.155,0.893c-0.814,0-1.58-0.317-2.155-0.893
		c-0.575-0.575-0.893-1.34-0.893-2.155c0-0.467,0.115-0.913,0.313-1.321l-0.871-0.871l-4.378,4.378l0.882,0.882
		c1.131-0.518,2.56-0.336,3.465,0.57c0.576,0.576,0.893,1.341,0.893,2.155s-0.317,1.58-0.893,2.155v0
		c-0.576,0.575-1.341,0.893-2.155,0.893c-0.814,0-1.58-0.317-2.155-0.893c-0.575-0.575-0.893-1.34-0.893-2.155
		c0-0.467,0.115-0.912,0.313-1.321L52.5,63.701l-4.378,4.378l0.873,0.873c1.135-0.546,2.535-0.362,3.474,0.578
		c1.188,1.188,1.188,3.122,0,4.31c0,0,0,0,0,0c-0.594,0.594-1.375,0.891-2.155,0.891c-0.78,0-1.561-0.297-2.155-0.891
		c-0.939-0.94-1.124-2.34-0.578-3.475l-0.873-0.873l-2.267,2.267l3.622,3.622c0,0,0.001,0.001,0.001,0.001s0.001,0.001,0.001,0.001
		l2.174,2.174l17.47-17.47L61.911,54.289z"/>
	<rect x="75.235" y="53.034" transform="matrix(0.7071 -0.7071 0.7071 0.7071 -15.0938 70.7187)" width="5.167" height="1.091"/>
	<path d="M94.489,21.712L83.596,32.605l2.192,2.192l4.36-4.36c0.391-0.391,1.023-0.391,1.414,0s0.391,1.023,0,1.414l-1.465,1.465
		l2.192,2.192l7.997-7.997l-2.899-2.899L94.489,21.712z"/>
	<path d="M95.607,20.001l3.196,3.196l3.196,3.196c0.449-0.146,0.972-0.38,1.496-0.744l-7.144-7.144
		C95.987,19.029,95.753,19.552,95.607,20.001z"/>
	<rect x="86.094" y="42.175" transform="matrix(0.7071 -0.7071 0.7071 0.7071 -4.2347 75.2167)" width="5.167" height="1.091"/>
	<path d="M99.265,16.352c-0.433,0.143-0.96,0.377-1.495,0.745l7.132,7.132c0.367-0.535,0.601-1.061,0.745-1.495l-3.191-3.191
		L99.265,16.352z"/>
	<polygon points="111.106,5.095 114.005,7.994 116.905,10.894 118.387,9.412 112.588,3.613 	"/>
	<path d="M121.279,0.721C120.814,0.256,120.058,0,119.151,0c-0.003,0-0.006,0-0.009,0c-1.641,0.003-3.465,0.804-5.116,2.224
		l5.749,5.749c1.42-1.65,2.221-3.475,2.224-5.116C122.001,1.946,121.745,1.187,121.279,0.721z"/>
	<polygon points="109.692,6.509 108.21,7.99 111.11,10.89 114.009,13.789 115.491,12.308 112.591,9.408 	"/>
	<polygon points="106.796,9.404 105.314,10.886 108.214,13.786 111.113,16.685 112.595,15.203 109.696,12.304 	"/>
	<polygon points="103.9,12.3 100.971,15.23 103.87,18.129 106.769,21.029 109.699,18.099 106.8,15.2 	"/>
	<rect x="56.581" y="73.714" transform="matrix(0.7071 -0.7071 0.7071 0.7071 -36.0601 62.4661)" width="1.583" height="2.095"/>
	<path d="M62.638,60.842C62.639,60.842,62.639,60.842,62.638,60.842c0.198-0.198,0.308-0.461,0.308-0.741s-0.109-0.543-0.307-0.74
		c-0.198-0.198-0.461-0.308-0.741-0.308s-0.543,0.109-0.74,0.307c-0.198,0.198-0.308,0.461-0.308,0.741s0.109,0.543,0.307,0.74
		C61.553,61.238,62.244,61.238,62.638,60.842z"/>
	<path d="M56.847,66.634C56.847,66.634,56.847,66.634,56.847,66.634c0.198-0.198,0.307-0.461,0.307-0.741s-0.109-0.542-0.307-0.741
		c-0.198-0.198-0.461-0.307-0.741-0.307s-0.543,0.109-0.74,0.307c-0.198,0.198-0.308,0.461-0.308,0.741s0.109,0.543,0.307,0.74
		C55.761,67.03,56.451,67.029,56.847,66.634z"/>
	<path d="M51.056,72.425c0.409-0.408,0.408-1.073,0-1.481c-0.204-0.204-0.473-0.306-0.741-0.306c-0.268,0-0.537,0.102-0.741,0.306
		c-0.408,0.409-0.408,1.073,0,1.482C49.982,72.834,50.648,72.834,51.056,72.425z"/>
	<path d="M74.945,48.535C74.946,48.535,74.946,48.535,74.945,48.535c0.198-0.198,0.308-0.461,0.308-0.741s-0.109-0.543-0.307-0.74
		c-0.198-0.198-0.461-0.308-0.741-0.308s-0.542,0.109-0.741,0.307c-0.198,0.198-0.307,0.461-0.307,0.741s0.109,0.542,0.307,0.741
		C73.861,48.931,74.551,48.931,74.945,48.535z"/>
	<path d="M72.74,52.155l1.452,1.452l16.685-16.685l-2.192-2.192l-3.637,3.637c-0.195,0.195-0.451,0.293-0.707,0.293
		s-0.512-0.098-0.707-0.293c-0.391-0.391-0.391-1.023,0-1.414l0.741-0.741l-2.192-2.192l-4.378,4.378l0.873,0.873
		c1.134-0.545,2.534-0.362,3.474,0.577c1.188,1.189,1.188,3.122,0,4.311c0,0,0,0,0,0c-0.594,0.594-1.375,0.891-2.155,0.891
		c-0.781,0-1.561-0.297-2.155-0.891c-0.94-0.94-1.124-2.34-0.578-3.474L76.39,39.81l-4.378,4.378l0.882,0.882
		c1.132-0.518,2.561-0.335,3.465,0.569c0.575,0.575,0.893,1.34,0.893,2.155c0,0.813-0.317,1.579-0.893,2.155h0
		c-0.575,0.576-1.341,0.893-2.155,0.893s-1.579-0.317-2.155-0.893s-0.893-1.341-0.893-2.155c0-0.467,0.115-0.913,0.313-1.321
		l-0.871-0.871l-4.378,4.378l5.799,5.799l0.758-0.758l-1.452-1.452c-0.391-0.391-0.391-1.023,0-1.414S72.349,51.764,72.74,52.155z"
		/>
	<path d="M80.737,42.744c0.409-0.409,0.409-1.073,0-1.482c-0.204-0.204-0.472-0.306-0.74-0.306c-0.269,0-0.537,0.102-0.741,0.307
		c-0.409,0.408-0.409,1.073,0,1.481C79.663,43.151,80.328,43.152,80.737,42.744z"/>
	<rect x="60.218" y="65.191" transform="matrix(0.7071 -0.7071 0.7071 0.7071 -27.551 65.9829)" width="11.31" height="2.115"/>
	<rect x="59.115" y="71.18" transform="matrix(0.7071 -0.7071 0.7071 0.7071 -33.5263 63.5156)" width="1.584" height="2.095"/>
</g>
</svg>
