<?xml version="1.0" encoding="UTF-8"?><svg width="512" height="512" version="1.1" viewBox="0 0 512 512" xmlns="http://www.w3.org/2000/svg" xmlns:xlink="http://www.w3.org/1999/xlink"><!--Generated by IJSVG (https://github.com/iconjar/IJSVG)--><g transform="scale(8)"><path fill="#000" d="M53,8c0,-0.334 -0.167,-0.646 -0.445,-0.832c-0.278,-0.186 -0.629,-0.22 -0.939,-0.091l-24,10c-0.373,0.155 -0.616,0.519 -0.616,0.923v27.61c-1.651,-1.59 -4.174,-2.61 -7,-2.61c-4.962,0 -9,3.141 -9,7c0,3.859 4.038,7 9,7c4.962,0 9,-3.141 9,-7v-23.333l22,-9.167v22.11c-1.651,-1.59 -4.174,-2.61 -7,-2.61c-4.963,0 -9,3.141 -9,7c0,3.859 4.037,7 9,7c4.963,0 9,-3.141 9,-7v-36Zm-24,16.5v-5.833l22,-9.167v5.833l-22,9.167Z"></path></g></svg>